<?xml version="1.0" encoding="utf-8"?>
<!-- Generator: Adobe Illustrator 22.1.0, SVG Export Plug-In . SVG Version: 6.00 Build 0)  -->
<svg version="1.1" id="Layer_1" xmlns="http://www.w3.org/2000/svg" xmlns:xlink="http://www.w3.org/1999/xlink" x="0px" y="0px"
	 viewBox="0 0 1920 1080" style="enable-background:new 0 0 1920 1080;" xml:space="preserve">
<style type="text/css">
	.st0{fill:#67A379;}
</style>
<path class="st0" d="M506,1080c-20.3,0-40.7,0-61,0c1.3-0.7,2.6-1.4,3.9-2.1c33-16.3,66.3-32,98.9-49.1
	c25.7-13.4,50.8-28.5,71.5-49.1c56.4-56.1,87.9-122.5,81.8-204c-1-13.4-0.9-27,0.2-40.4c1.9-23.2,14.9-38.7,36.4-47
	c5.7-2.2,11.7-4,17.7-5.2c23.6-4.9,47.4-4.4,71.2-2.5c42,3.3,83,12.3,123.6,23c48.8,12.9,97.4,26.7,146.3,38.8
	c52.7,13,106.3,20.5,160.9,18.6c33.1-1.1,65.7-5.9,97.1-17c25.4-9,48.9-21.3,67.8-41c24.3-25.3,32.6-55.1,24.1-89.3
	c-4.5-18.2-12.2-35.2-21-51.8c-10.6-20-21.7-39.8-32.3-59.8c-10.1-19.1-18.1-38.9-21.8-60.4c-5-28.5,2.4-52.6,23.2-72.8
	c13.7-13.2,29.1-24,46-32.4c41.6-20.7,83.6-40.8,125.3-61.3c37.9-18.6,75.4-37.8,109.5-62.9c27.1-19.9,51.3-42.8,67.7-72.5
	c9.4-17,17.4-34.9,25.1-52.8c15.4-35.6,37.1-65.8,71.4-85.6c0.5-0.3,0.9-0.9,1.4-1.4c24,0,48,0,72,0c-4.8,3.1-9.6,6-14.2,9.3
	c-22.4,15.7-37.6,36.2-41.4,63.9c-1.2,8.7-1.8,17.6-2.4,26.4c-1.5,22-8.3,42.1-23.1,58.4c-9.9,10.9-20.9,21.1-32.6,30
	c-32.7,24.9-69.4,43-107.1,58.9c-53.6,22.5-107.8,43.7-161.4,66.1c-27.8,11.6-55.2,24.2-82.4,37.2c-15.2,7.3-28.4,17.9-40.1,30.3
	c-13.4,14.3-20.1,31.2-19.4,50.9c0.5,16.7,3.5,33,10.5,48c10.1,21.7,21.2,43,32.2,64.3c10.3,19.8,20.8,39.5,27.7,60.9
	c5.5,17,8.3,34.3,5,52.2c-5,27.2-20.6,47.6-41.8,64.3c-21.1,16.6-45.3,27.4-70.9,34.9c-56.7,16.7-114.4,17-172.4,10.5
	c-45.6-5.1-90.3-15.4-134.6-26.9c-46.6-12.1-93.1-24.6-139.9-35.8c-30.7-7.3-62-11-93.7-9.8c-14.7,0.6-29.2,2.4-43,8
	c-18.2,7.3-28.3,20.7-29.7,40.2c-0.6,7.8-0.4,15.7,0.2,23.5c1.2,16.8,3.8,33.5,4.3,50.3c1.6,46.1-6.5,91-18.6,135.2
	c-7.4,27.2-24.2,47.6-48.6,61.6c-10.8,6.2-21.9,12.2-33.5,16.7c-34.5,13.3-69.4,25.7-104,38.6C527.4,1071.8,516.7,1075.9,506,1080z"
	/>
<path class="st0" d="M384,1080c-26,0-52,0-78,0c13.1-6.9,26.4-13.6,39.3-20.9C397,1029.8,445,994.9,491.5,958
	c30.8-24.5,60.5-50.2,86.1-80.3c29.1-34.1,48.4-72.3,52.6-117.6c1.1-11.7,3.6-23.4,6.2-34.9c5.2-23.3,18.6-40.8,39.3-52.3
	c8.7-4.8,18-8.7,27.5-11.6c22.9-6.9,46.6-7.8,70.3-6.7c43,2.1,85.7,7.5,127.6,17.3c47.8,11.1,95.2,24.2,142.7,36.8
	c54,14.4,108.2,27.6,164.2,30.8c37,2.1,73.6,0.4,109.6-9.5c25.8-7.1,50-17.8,69.6-36.7c23.5-22.6,32.1-49.9,25.1-82
	c-3.8-17.6-11-33.9-19.4-49.7c-11.5-21.6-23.6-42.9-35.3-64.4c-10.7-19.7-18.6-40.5-23.1-62.6c-5.5-27,0.1-51.1,18.4-71.7
	c7.8-8.8,16.4-17.2,25.7-24.3c12.3-9.4,25.6-17.4,38.6-25.9c22.4-14.7,45.2-28.9,67.4-44c44-30.1,80.7-67.3,109.5-112.3
	c16.6-25.8,33.6-51.3,51.1-76.4c20.9-29.9,44-57.9,74.6-78.6c0.5-0.3,0.8-1,1.2-1.5c20.3,0,40.7,0,61,0c-1,0.8-1.9,1.8-3,2.5
	c-20,12.8-37.6,28.5-50.9,48.1c-16.3,24-32.3,48.2-46.8,73.3c-29.9,51.9-69.3,94.5-120.1,126.1c-25.5,15.8-51.3,31-77.3,46
	c-24.1,13.9-48.7,26.9-72.8,40.9c-17.2,10.1-32.4,22.9-44.2,39.2c-10.3,14.1-15.3,29.8-14.2,47.4c1.2,19,5.4,37.5,13.8,54.5
	c12.3,24.8,25.7,48.9,38.7,73.3c9.9,18.5,19.5,37.2,25,57.6c10,36.9,0.5,68.1-27.4,93.9c-14.5,13.4-31.5,22.9-49.8,30
	c-33.8,13.3-69.1,18.3-105.2,19c-46.3,1-91.9-4.8-136.7-15.6c-49.5-12-98.6-25.7-147.8-39c-56.4-15.2-113.4-27.3-172-29.8
	c-25.3-1.1-50.4-0.1-74.5,8.5c-28.3,10.1-44.7,30.1-47.9,60c-1.5,14.2-1.9,28.6-2.1,42.9c-0.4,34-10.2,65.2-27.3,94.5
	c-18.6,31.9-42.4,59.4-69.8,83.8c-54.4,48.6-115.1,88-180.7,119.8C387.3,1077.8,385.7,1079,384,1080z"/>
<path class="st0" d="M231,1080c-77,0-154,0-231,0c0-2.3,0-4.7,0-7c12.6,0.9,25.2,1.6,37.8,2.6c25.3,2.1,50.5,3.6,75.9,1
	c37.2-3.9,71.6-16.6,104.7-33.2c44.7-22.4,86.2-49.9,127-78.5c47.6-33.4,95-67.1,139-105.3c32.9-28.6,59.3-62.1,75.6-102.9
	c4.2-10.5,9-20.8,13.5-31.2c20.5-48,57.1-76.2,107.5-87.5c34.9-7.8,70.2-7,105.5-3.3c69.2,7.2,137.4,19.7,204.8,37.2
	c48,12.4,95.9,25.7,145,33.9c42.1,7,84.3,10.7,126.9,4.5c27.4-4,53.5-11.5,76-28.5c27.5-20.7,38-48.1,29.9-81.9
	c-2.3-9.5-5.3-19.1-9.5-27.8c-10.2-21.1-21-42-32.2-62.7c-13.9-25.6-25.6-51.9-31.8-80.6c-5.4-25.2-1.1-48.5,13.8-69.4
	c6.5-9,13.6-17.9,21.8-25.2c15-13.2,30.8-25.5,46.6-37.7c41-31.7,76.3-68.5,103.8-112.6c13.9-22.2,27.7-44.4,41.7-66.5
	C1551,73.9,1583,34.2,1623.5,1.9c0.6-0.5,1-1.2,1.5-1.9c16,0,32,0,48,0c-0.8,0.8-1.5,1.8-2.4,2.4c-16.2,12.1-30.7,26.1-44.2,41.1
	c-28,31.1-51.8,65.3-73.1,101.1c-36.9,62-84.4,113.8-144.7,153.8c-15.4,10.2-30.5,21-45.4,31.9c-15.6,11.5-28.8,25.3-38.5,42.1
	c-8.3,14.3-11.9,29.6-10.2,46.1c2.4,22.5,8.8,43.9,19,63.9c12.4,24.3,26,48.1,38.8,72.2c9,17,17.1,34.3,21.1,53.3
	c6.4,29.8-1,55.7-23.2,76.6c-8.4,7.9-18.3,14.4-28.3,20.2c-16.6,9.6-35,14.7-53.7,18.2c-46.7,8.8-93.2,5.9-139.7-1.6
	c-47.3-7.6-93.5-20-139.5-33c-76.2-21.5-153.3-37.8-232.4-43.9c-30.2-2.3-60.3-2-89.8,6.4c-41.6,11.8-70.1,37.1-81.9,79.6
	c-3.3,11.9-6.7,23.7-9.9,35.6c-7.7,28.2-20,54.2-39.1,76.4c-14,16.2-28.6,32.2-44.5,46.5c-47.4,42.7-99,80-151.3,116.2
	c-40.3,27.9-81.8,54-127.1,73.3C232.2,1078.9,231.6,1079.5,231,1080z"/>
<path class="st0" d="M1547,0c13,0,26,0,39,0c-1.1,1.2-2.1,2.5-3.4,3.5c-28.8,24.1-54.5,51.2-75.5,82.3
	c-19.6,28.9-38.1,58.7-56.2,88.6c-25.4,42.1-54.3,81.2-91.9,113.2c-13.6,11.6-27.2,23.1-40.5,34.9c-14.6,12.9-27,27.6-35.6,45.3
	c-7.3,14.9-10.3,30.6-8.3,47.1c2.9,23.2,10.1,45.3,19.9,66.3c10.3,21.9,21.8,43.1,32.6,64.7c7.6,15.2,14.4,30.8,18.1,47.5
	c7,31.7-2.7,57.1-28.8,76.3c-13.4,9.8-28.5,15.9-44.4,20c-34.4,9-69.3,8.8-104.3,5.6c-43.8-4-86.6-13.4-129.1-24
	c-83.7-20.9-168-38-253.9-46.9c-34.1-3.5-68.2-4.3-102.2,1.5c-55.6,9.4-99.4,36.8-130,84.5c-6.4,9.9-12.8,20-18.1,30.5
	c-23.4,45.7-56.2,83.2-96.9,114.1c-17,12.9-33.9,25.9-51.3,38.3c-54.1,38.7-108.7,76.6-166.9,109.1c-50.3,28.1-103.3,47-161.5,49.1
	c-19.3,0.7-38.6,1.6-57.9,2.4c0-7.7,0-15.3,0-23c7.7-1.3,15.4-2.7,23.1-3.9c71.2-11,137.7-35,199.9-71.2
	c62.1-36.2,122-75.8,180.1-118.2c36-26.2,66.8-57.6,92.6-93.9c11.2-15.7,23-31.1,35.5-45.8c34.5-40.5,77.2-68.1,129.6-79.7
	c38.3-8.4,77-8.9,115.9-5.7c57.5,4.7,114.4,14.5,171,25.1c47.6,9,95,19.5,142.6,28.8c35.1,6.8,70.4,11.3,106.3,10.5
	c25.5-0.6,50.5-3.8,74.2-14.1c39.3-17.2,54.4-48,41.5-88.8c-6.1-19.4-14.8-38.2-23.6-56.7c-14-29.2-26.9-58.8-34-90.6
	c-5.6-25.3-2-48.9,11-71.3c9.4-16.2,21.7-29.9,35.2-42.7c22.4-21.2,45.1-42,64.5-66.2c21.7-27,39.3-56.7,56-86.9
	C1454.6,99.7,1494.1,44.6,1547,0z"/>
<path class="st0" d="M0,1011c0-7.3,0-14.7,0-22c2.2-0.8,4.4-1.6,6.6-2.4c100.7-39,195.6-89.6,287.4-146.2
	c47.9-29.5,93.9-61.4,134.7-100.5c24.5-23.5,49.7-46.4,75.9-68c61.6-50.7,132.6-78.1,212.5-82.2c45.7-2.3,90.9,1.8,136,7.9
	c66.9,9.1,133.6,18.9,200.5,27.9c33.4,4.5,66.9,7.8,100.7,5.6c20.2-1.3,40.2-3.9,58.7-12.8c26.6-12.8,37.7-32.3,33.5-61.5
	c-1.8-12.5-4.9-24.9-8.9-36.8c-9.8-29.3-19.3-58.5-26-88.7c-6.3-28.5-2.2-55.2,11.8-80.7c9.7-17.7,22-33.4,35.6-48.1
	c29-31.1,53.8-65.3,74.4-102.5c10.5-18.8,21.4-37.3,31.6-56.2c25.2-47.2,57.1-89.1,96.4-125.4c6.6-6.1,13.1-12.2,19.7-18.4
	c11,0,22,0,33,0c-1.3,1.4-2.5,3-4,4.3c-33.3,29.6-63.3,62.2-87.1,99.9c-16.2,25.8-31.2,52.4-46.1,79c-24.4,43.2-53.2,83-88.9,117.7
	c-10.4,10.1-20,21-29,32.3c-13.8,17.3-23.7,36.7-26.5,59c-2.1,17.1,1.4,33.5,5.7,49.8c7.3,27.3,18.3,53.2,29.1,79.2
	c6.7,16.1,12.9,32.7,16.7,49.6c7.2,31.9-4.5,54.8-33.5,69.9c-5.6,2.9-11.5,5.2-17.5,7.2c-15.6,5.2-31.8,7.4-48.1,8.2
	c-39.9,2.1-79.2-3.4-118.3-9.8c-79.1-13-158.1-26.5-237.3-38.7c-44.9-6.9-90.1-9.5-135.6-4.7c-51.1,5.3-98,21.7-139.9,51.9
	c-29.8,21.5-55.6,47.3-79.3,75.1c-31.7,37-66.1,71-106.7,98.2c-31.4,21-63.1,41.8-95.2,61.8c-52.3,32.5-105.8,63-163.5,84.8
	C73.2,988.1,36.4,998.9,0,1011z"/>
<path class="st0" d="M558,1080c17.7-4.6,35.4-9.4,53.1-13.9c36.3-9.2,72.9-17.6,109-27.5c13.5-3.7,26.6-9.8,39.1-16.4
	c22.8-12,34.8-31.3,33-57.5c-1.3-18.9-4.3-37.7-5.9-56.6c-2.3-26.7-3.7-53.5-6.1-80.2c-1.6-17.2-4.6-34.3-6.5-51.6
	c-0.9-8.6-1.2-17.3-0.7-25.9c0.9-16.7,9.6-28.3,25-34.9c12.5-5.3,25.7-7,39.1-7.4c32.2-0.9,63.8,4,95,11.6
	c45.9,11.2,91.7,23.4,137.6,34.6c59.4,14.6,119.5,24.3,180.9,23.4c47.2-0.7,93.3-7.2,137.1-25.7c22.9-9.7,44-22.2,61.4-40.3
	c27.4-28.6,36.3-62,25.3-100.4c-7.1-24.9-19.1-47.5-30.7-70.4c-9.9-19.6-19.7-39.3-28.8-59.3c-5.9-13-8.5-26.9-9.4-41.2
	c-1.4-21.7,5.2-40.3,20.6-55.8c15.6-15.6,33.8-27.4,53.9-35.5c36.3-14.7,72.8-28.9,109.7-41.8c62.7-22,126-42.4,188.7-64.4
	c42.5-14.9,84-32.1,123.2-54.7c6.2-3.6,12.2-7.4,18.3-11.2c0,17.7,0,35.3,0,53c-21.1,6.4-42,13.1-63.2,19
	c-73.2,20.4-146.7,39.8-219.6,61.2c-44.7,13.1-88.8,28.6-132.8,43.9c-20.5,7.1-39.2,18.4-55.8,32.7c-18,15.5-27,35.1-24.9,58.8
	c1.1,11.8,2.7,24.1,7,35.1c8.4,21.3,18.6,42,28.6,62.7c10.4,21.6,21.2,43,28.1,66.2c11.8,39.6,3.6,74.5-24.8,104.4
	c-6.3,6.6-13.3,12.7-20.6,18.2c-21.2,16.1-45.1,27-70.4,34.9c-62.3,19.6-126.1,21.4-190.5,15.4c-48.2-4.5-95.4-14.9-142.5-25.9
	c-39.7-9.3-79.5-18.6-119.4-26.9c-20.9-4.4-42.3-5.6-63.7-2.7c-33.2,4.4-46,20.6-42.4,53.9c1.1,10.3,2.8,20.5,4.7,30.6
	c5.4,29.3,9.6,59.1,20.9,86.9c8.1,19.9,17.9,39,26.6,58.7c5,11.4,10.2,22.9,13.4,34.9c4.4,16.2-0.9,28.7-15,37.9
	c-6.5,4.3-13.6,8-20.9,10.5c-13.2,4.5-26.6,9.1-40.3,11.5c-44.8,7.9-89.8,14.8-134.7,22.1c-12.3,2-24.6,4.1-36.9,6.1
	C606.7,1080,582.3,1080,558,1080z"/>
<path class="st0" d="M1422,0c10.3,0,20.7,0,31,0c-1.3,1.2-2.6,2.5-4,3.7c-38.1,32.9-72.4,69-98,112.7c-14.7,25-28.8,50.3-42.4,75.9
	c-21,39.6-45.1,77-74.1,111.2c-11,13-20.8,27.3-29.7,42c-17.1,28.2-22.3,58.9-15.2,91.4c5.2,23.8,10.8,47.4,15.5,71.3
	c2.5,12.7,4.4,25.7,4.7,38.6c0.5,19.7-8.6,35.3-26,44.7c-9.1,5-19.1,8.8-29.2,11.2c-30.1,7.3-61,7.4-91.5,4.5
	c-62.4-5.9-124.6-12.9-186.8-19.9c-44.4-5-88.7-10-133.5-9.4c-73.1,1-141.6,19.1-205.2,55.2c-37.6,21.3-71.5,47.6-104.8,74.9
	c-34.8,28.5-68.9,58-106.7,82.5c-70.9,46-144.5,87.6-219.3,126.7C71.5,935.7,35.6,952.5,0,970c0-7,0-14,0-21c1-0.5,2.1-1,3.1-1.6
	c64.3-35.9,128.7-71.6,192.8-107.9c50.6-28.7,100.7-58.2,148.1-92c36.4-25.9,72.3-52.4,108.9-78.1c49.6-34.9,102.8-62.8,160.6-81.8
	c66.4-21.8,134.5-26,203.5-20.9c55.3,4.1,110.6,9.5,165.9,13.7c34.9,2.7,69.9,3.7,104.8-0.4c15.6-1.8,30.9-5.2,45.2-12.1
	c18.8-9,30.4-23.7,33.2-44.4c1.1-8.4,1.8-17,1.2-25.4c-1.4-19.6-3.3-39.2-5.9-58.7c-3.8-28.8,0.3-56,12.8-82.3
	c9.8-20.6,22.6-39.2,36.4-57.2c16.5-21.5,32-43.5,44.6-67.5c11.8-22.4,23.6-44.8,34.9-67.5c31.6-63.6,74-118.6,129.9-162.8
	C1420.7,1.5,1421.3,0.7,1422,0z"/>
<path class="st0" d="M0,569c0-7.7,0-15.3,0-23c3.1-1.5,6.3-3.1,9.4-4.6c38.6-17.9,76.4-37.2,111.4-61.7c19.4-13.6,38.7-27.2,58-40.9
	c47.4-33.4,99.4-55.2,157-63.5c25.5-3.7,51-8.4,76.3-13.4c58.5-11.6,106.2-42.3,147.9-83.8c10.9-10.8,14.4-23.6,9.6-38
	c-3-9.1-6.6-18.3-11.6-26.4c-27.5-44.6-58.2-86.6-97.3-121.9c-11.4-10.3-22.7-20.6-33.7-31.3c-4.4-4.3-8.3-9.2-11.6-14.3
	c-7.5-11.5-5.7-22.2,5.7-30c6.9-4.8,14.9-8,22.4-11.9c3.1-1.6,6.3-2.9,9.4-4.3c30,0,60,0,90,0c-9.7,7.3-19.9,14.1-29,22.1
	c-14.1,12.4-16.3,26.1-7.4,42.6c4.3,7.9,9.2,15.5,14.5,22.7c31.8,43.6,63.8,87.1,95.7,130.7c8.5,11.6,16.2,23.7,20.5,37.6
	c4.8,15.4,1.9,29.3-9.9,40.3c-7.5,7-15.9,13.1-24.2,19.3c-26.9,20.3-55.3,37.7-87,49.6c-34.5,13-70.4,20.2-106.7,26
	c-30.4,5-60.9,9.6-90.2,19.6c-35.5,12.2-68.8,28.8-100.9,48.1c-50.8,30.5-102.1,59.8-156.6,83.3C41.1,550.8,20.6,560,0,569z"/>
<path class="st0" d="M1366,0c9.7,0,19.3,0,29,0c-1.4,1.4-2.8,2.8-4.3,4c-24.7,19.9-48.2,41-68.8,65.3
	c-29.4,34.6-51.9,73.5-70.5,114.6c-21.3,47.3-45.8,92.4-76.4,134.4c-10.2,14-18.1,29.9-25.8,45.6c-11.5,23.1-15.8,47.9-15.6,73.7
	c0.1,16.6,0.2,33.4-1.7,49.9c-3.4,29.6-20.1,49.6-48.1,59.5c-11.4,4.1-23.3,7.1-35.3,9c-35.9,5.8-72.1,5.1-108.2,3.4
	c-45.6-2.1-91.2-5.1-136.8-6.9c-87.9-3.5-172,12.3-252.5,48.3c-51,22.8-99,50.8-145.3,81.7c-67.8,45.2-135.4,90.8-206,131.5
	C133,852.4,66.5,891.3,0,930c0-7.3,0-14.7,0-22c9.9-5.8,20-11.4,29.8-17.4c114.3-69.3,228.6-138.5,342.8-207.9
	c51.9-31.5,104.5-61.3,160-86.3c87.8-39.7,179.4-60.1,275.7-59.8c35.7,0.1,71.3,0.6,107,0.4c29.2-0.1,58.4-0.7,87.2-6
	c19.4-3.6,38.4-8.3,55.5-18.8c17.7-10.9,29.9-25.8,35-46.1c2.3-9.4,4.7-18.8,6.2-28.3c4.3-27.3,12.6-53.2,25.6-77.5
	c8.2-15.4,16.8-30.8,26.6-45.2c25.2-36.8,45.5-75.8,61.1-117.6c20.4-54.2,49.6-103.5,91.3-144.2C1323.3,34.3,1345.2,17.7,1366,0z"/>
<path class="st0" d="M1920,256c0,7.3,0,14.7,0,22c-1.5,0.2-3,0.2-4.4,0.5c-49.8,10.1-99.6,20-149.3,30.5
	c-70.9,14.9-141.5,31.3-210.7,53c-24.1,7.6-47.1,17.5-67.9,32.2c-27.2,19.3-36,45.5-29.9,77.5c4.2,21.8,14,41.6,22.6,61.8
	c10.1,23.6,20.1,47.2,29,71.2c5.8,15.7,7.9,32.4,6.2,49.2c-3,29-17.4,52.1-38.2,71.6c-24.1,22.7-52.8,37.5-83.7,48.5
	c-51,18.1-103.9,24.5-157.7,24.8c-51.2,0.3-101.7-6.2-151.9-15.3c-37-6.7-74-13.7-111.2-19.8c-18.3-3-36.8-4.3-55.2-0.5
	c-21.4,4.4-31.8,18-28.7,39.6c1.6,11.3,4.9,22.5,9,33.1c11.9,30.3,30.6,56.3,53.9,78.6c23.6,22.5,48.9,43.2,73.2,65
	c10.1,9.1,20.4,18.3,29.1,28.7c15,18.1,11.9,31.6-9.4,41.6c-10.2,4.8-21,9-32,11.1c-29.6,5.7-59.4,10.4-89.1,15.2
	c-11.1,1.8-22.4,2.8-33.6,4.1c-53.7,0-107.3,0-161,0c1.5-0.3,2.9-0.7,4.4-0.9c32.5-3.4,65-6.4,97.4-10.1
	c31.1-3.6,62.3-7.7,92.2-17.3c10.7-3.4,21.2-8.2,30.7-14.1c12.9-8,15.7-20.2,9.1-33.9c-3.2-6.7-7.2-13.2-11.8-19.1
	c-12.5-16-25.4-31.7-38.3-47.4c-32.6-39.5-52.8-84.6-62-134.7c-1.4-7.5-2-15.2-1.9-22.8c0.3-16.6,8.4-27.6,24.2-33
	c5.3-1.8,11-3,16.6-3.6c24.5-2.7,48.6,0.8,72.5,5.7c41.9,8.6,83.6,18.2,125.6,26.8c68.6,13.9,137.6,21.1,207.6,13.6
	c36.9-3.9,73-11.5,107.4-26c28.9-12.2,55.2-28.1,75.7-52.4c18.1-21.5,27.6-46.1,25.4-74.6c-1.3-16.8-5.7-32.9-12.3-48.2
	c-9.4-21.9-19.7-43.4-29.7-65c-8.5-18.5-17.4-36.8-21.1-57c-6-32.2,2.7-58.9,30.1-78.5c13.6-9.7,27.9-18.4,43.6-24.1
	c24.7-8.9,49.7-17.5,74.8-25.1c84.1-25.4,169.9-44.2,255.4-64.2C1869.8,268.1,1894.9,262,1920,256z"/>
<path class="st0" d="M610,0c38.3,0,76.7,0,115,0c-2.3,0.3-4.6,0.7-6.9,0.9c-15.3,1.3-30.5,3.7-44.5,10.4
	c-19,9.2-29.1,24.3-29.2,45.6c-0.1,18.3,2.1,36.2,7.6,53.7c8.9,28.9,23.3,54.8,41.4,78.8c12.3,16.4,25.3,32.3,36.7,49.3
	c6.4,9.5,11.1,20.5,14.7,31.5c5.1,15,1.6,29.3-7.7,42.1c-6.5,8.9-14.7,16-24.1,21.4c-22.5,13-44.8,26.4-67.9,38.2
	c-42.8,21.9-88.6,35.2-135.6,43.8c-74.2,13.6-144.2,38.9-212.5,70.1C244,510,190.5,532.9,137.2,556C91.6,575.6,45.7,594.7,0,614
	c0-8,0-16,0-24c6.3-2.6,12.6-5.2,18.9-7.8c84-35.3,167.3-72.3,248-114.7c25.7-13.5,52.9-24.4,79.9-35.4
	c36.3-14.9,74.9-21.6,113.3-27.9c74-12.1,142.5-37.6,203.6-81.7c6.6-4.8,13.1-9.8,18.8-15.5c9.6-9.7,13.5-21.9,10.6-35.4
	c-1.6-7.7-4-15.8-8.2-22.3c-9.2-14.6-19.1-28.9-30-42.4c-27.6-34-52.6-69.7-71.2-109.5c-4.8-10.3-9-21.5-10.3-32.7
	c-2.7-24,7.4-43.4,26.6-58C603.3,4.2,606.7,2.2,610,0z"/>
<path class="st0" d="M250,0c30.3,0,60.7,0,91,0c-12.7,12.2-13.9,22.4-4.3,37.6c1.4,2.2,2.8,4.7,4.7,6.4c10.8,9.8,21.4,20,32.9,29
	c13.9,10.9,28.7,20.6,42.9,31.2c31.1,23.2,57.1,51.1,76.2,85c6.3,11.2,12.3,22.6,14.9,35.3c2.5,12,0.3,23.2-8.2,32.2
	c-13.6,14.4-27.3,28.9-42.1,42c-26,23.1-57.3,36.4-90.9,44.1c-26.1,6-52.6,10.4-79,15c-39.9,7.1-77.9,19.3-112.6,40.8
	c-23.9,14.8-45.4,32.7-66.6,51c-32,27.7-65.7,52.8-103.6,72c-1.8,0.9-3.6,1.5-5.5,2.3c0-8.7,0-17.3,0-26
	c12.6-9.8,25.9-18.8,37.6-29.6c18.4-16.9,35.6-35,53.4-52.6c30.2-29.9,64.7-53.1,105.2-66.2c20.4-6.6,41.5-11.2,62.3-16.5
	c21.8-5.5,43.9-9.9,65.4-16.2c30.2-8.9,56.2-25.1,76.7-49.3c9.2-10.8,17.9-21.9,27.1-32.7c8.9-10.5,11.5-22.2,8.4-35.5
	c-3.3-14.1-10.7-26.1-19.5-37.4c-15-19.3-33.9-34.3-53.8-48.2c-19.1-13.3-38.7-26.1-57.4-40c-18.8-14-35.3-30.7-47.1-51.1
	C254.5,15.8,252.8,7.6,250,0z"/>
<path class="st0" d="M0,658c0-7.7,0-15.3,0-23c109.4-45.9,218.9-91.5,328.1-137.8c72.1-30.6,145.3-57.3,222.1-73.6
	c67.4-14.3,130.3-40.8,189.4-75.9c11.1-6.6,21.8-14.4,31-23.4c17.7-17.2,21.7-38.4,13.7-61.6c-2.5-7.4-5.7-14.7-9.8-21.3
	c-8.2-13.3-16.8-26.4-26.1-39c-26.1-35.3-41.2-74.8-46.7-118.1c-0.9-6.7-1-13.7-0.6-20.4c1.1-20.2,11.2-34.2,30.4-40.9
	c6.3-2.2,12.8-4.2,19.4-4.7c18.4-1.4,36.9-2.9,55.3-2.7c48.9,0.4,97.6-1.8,146-9.4c11.6-1.8,23.2-4,34.9-6c15.3,0,30.7,0,46,0
	c-1.1,0.4-2.1,1-3.2,1.2c-61,13.5-122.2,26.1-184.7,31c-14.9,1.2-29.9,3-44.5,6.1c-8.4,1.8-16.9,5.7-23.9,10.6
	c-11.3,7.8-14.2,20.5-14.7,33.6c-0.6,17.7,3,34.8,7.4,51.8c7,27.5,20.7,51.8,34.9,76c7.9,13.5,15.7,27.2,21.3,41.7
	c11.8,30,5.9,56.8-17.4,79.6c-11.7,11.4-25.4,20-39.7,27.5C713.1,388.4,655.8,413,595,429c-58.4,15.4-116.2,32.1-172.4,54.4
	C283.3,538.6,145.2,596.6,7.4,655.3C5,656.4,2.5,657.1,0,658z"/>
<path class="st0" d="M1308,0c10.3,0,20.7,0,31,0c-8.6,6.5-17.3,12.9-25.9,19.5c-64.9,49.9-113.2,111.4-134.8,191.9
	c-8.6,31.9-23.3,61.2-41.2,89c-12.2,18.9-23.8,38.2-35.2,57.5c-15.7,26.5-27.2,55-38.8,83.3c-12.5,30.4-35.2,49-65.6,59.4
	c-23,7.8-46.7,12.5-70.9,14.1c-41.6,2.8-83.2,4.7-124.8,7.1c-57.4,3.3-114.1,10.9-169.4,26.9c-53.1,15.4-103.7,37.4-153.7,60.7
	c-60.3,28.1-117.6,62-174.7,96C202.4,766,101.3,827.2,0,888c0-7.7,0-15.3,0-23c7-4.2,13.9-8.5,20.9-12.7
	c89.7-54.5,179.1-109.6,271-160.4c72.6-40.1,145.5-79.7,222.4-111.4c47.8-19.7,95.6-39.1,145.9-51.7c56.9-14.2,114.9-21.6,173-27.9
	c35.8-3.8,71.4-8.4,106.4-17.7c42.8-11.3,76.9-34.2,100.4-72.3c24.3-39.4,49.2-78.5,73.6-117.8c14.8-23.7,24.6-49.5,30.5-76.7
	c2.7-12.4,5.5-24.7,8.5-37c7.2-29.5,20.5-56,40.2-79c31.6-36.9,67.9-68.6,108.5-95.3C1303.7,3.6,1305.8,1.7,1308,0z"/>
<path class="st0" d="M129,0c20,0,40,0,60,0c4,6.7,7.5,13.8,12.1,20c22.8,30.9,50.3,57.3,80.5,80.8c16.8,13.1,33.9,25.9,50.4,39.4
	c11.6,9.5,21.8,20.6,28.4,34.4c5.4,11.4,5.2,22.5-1.8,33.2c-6.7,10.3-13.6,20.6-19.8,31.2c-17,29.2-42.1,48.2-73.6,58.9
	c-21.7,7.4-43.9,13.6-65.9,20.3c-24.9,7.6-49.2,16.8-72,29.3c-33,18.1-59.4,43.6-83.4,72.2C29.7,436.6,14.6,452.6,0,469
	c0-15,0-30,0-45c3.5-4.6,7.1-9.2,10.4-14c27.4-39.7,62.3-70.9,104.6-93.9c16.1-8.8,32.6-16.7,48.7-25.5
	c14.7-8.1,29.5-16.2,43.5-25.3c13.9-9,23.9-22,28.7-38c5.2-17.5,8.7-35.5,13.6-53.2c3.9-14.1,1.4-26.9-7.1-38.3
	c-8.2-10.9-16.8-21.5-25.8-31.7c-21.2-23.9-43.1-47.2-64.1-71.4C143.8,22.6,136.8,11,129,0z"/>
<path class="st0" d="M0,703c0-8,0-16,0-24c1.4-0.4,2.9-0.6,4.2-1.2c124.4-54.1,248.9-107.9,374.9-158.1
	c76.5-30.5,153.3-60,232.9-81.6c61.5-16.6,120.1-40.9,177.3-68.8c17.3-8.4,33.9-17.9,48.2-30.9c29.1-26.4,38.1-58.1,25.1-95.5
	c-3.7-10.7-8.7-20.9-13.3-31.2c-8.6-19.2-18-37.9-25.8-57.4c-7.6-19-11.6-39-9.8-59.7c1.4-16.5,9.1-29,24.6-35.3
	c9.7-3.9,19.7-7.2,29.9-9.7c53.2-13.1,106.6-25.7,159.8-38.7c13.7-3.3,27.3-7.3,40.9-10.9c11.7,0,23.3,0,35,0
	c-8.8,3-17.4,6.5-26.4,9c-47.3,13.3-94.5,27-140.2,45.2c-14.7,5.8-29.3,12-43.3,19.2c-21.7,11.1-30,29.6-26.6,53.6
	c2.4,17.2,8.1,33.3,14.5,49.2c7.3,18.1,14.8,36.1,20.7,54.7c13.8,43.3,3.1,80.3-30.5,111c-18.1,16.5-39.2,28.1-61.3,38.1
	c-48,21.7-97,40.8-147.2,57c-44.1,14.2-88.6,27-132.1,42.8C363.3,541,199.6,613.3,36.3,686.4C24.2,691.9,12.1,697.5,0,703z"/>
<path class="st0" d="M1249,0c10.7,0,21.3,0,32,0c-0.9,0.7-1.8,1.4-2.8,2c-38.4,23.2-72.9,51.5-106.3,81.2
	c-23.5,21.1-41.5,46.1-48.8,77.4c-3.3,14.2-5.2,28.8-7,43.4c-3.3,25.9-8,51.5-20.5,74.8c-22.3,41.6-47.5,81.4-77.6,118
	c-24.3,29.4-54.4,50.4-90.5,62.5c-15.2,5.1-30.4,10.3-46,13.5c-39,8-78.2,15-117.4,22c-61.4,11.1-122.1,24.6-180.7,46.7
	c-91.1,34.4-179.4,75.1-265.9,119.8C208.9,717.6,104.2,780.2,0,844c0-8.3,0-16.7,0-25c1.5-0.7,3.1-1.2,4.5-2
	c12.3-7.3,24.6-14.6,36.9-22.1c136-82.7,277.3-155.3,423.4-218.3c53.5-23.1,107.4-45.5,163-63.1c53-16.8,107.2-28.3,161.3-40.4
	c42.8-9.6,85.2-20.4,126-37c33.1-13.5,62.1-32.8,86-59.4c25.6-28.5,45.9-60.4,63-94.6c8.5-17,13.7-35.2,14.9-54.1
	c1.1-17.6,1.3-35.3,1.9-52.9c1-30.8,11.9-57.6,33.6-79.5c8.4-8.5,17.4-16.7,27.2-23.5c31.5-21.8,63.4-43,95.2-64.4
	C1240.8,5,1244.9,2.6,1249,0z"/>
<path class="st0" d="M1920,293c0,5.3,0,10.7,0,16c-1.7,0.1-3.3,0.1-4.9,0.4c-31.7,5.5-63.4,10.9-95,16.6
	c-76.9,14-153.5,29.1-228.9,50c-25.4,7-49.6,16.5-71.6,31.2c-26.8,17.9-37.4,43.2-30.5,74.3c4.1,18.7,11.3,36.9,17.7,55.1
	c8,23,17.4,45.4,24.6,68.6c7.7,24.8,8.6,50.2-1,75.1c-8.7,22.3-23.4,40.1-41.5,55.4c-21.7,18.4-46.4,31.8-72.7,42.2
	c-56.7,22.4-115.9,31.3-176.4,33c-56,1.6-111.5-4.8-166.9-11.4c-23.8-2.8-47.7-6-71.7-3.5c-7.5,0.8-15.1,2.7-22.1,5.7
	c-10.1,4.3-14.3,13.2-12.5,24.2c0.7,4.1,1.6,8.4,3.6,11.9c4.9,8.5,9.9,17.1,16,24.6c13.7,16.9,30.1,31.4,48,43.5
	c31.4,21.3,63.4,41.8,95.5,62.1c27,17.1,54.8,33.1,79.6,53.4c6.8,5.6,13.2,11.9,18.5,18.8c9.1,12.1,6.5,21.6-7.3,27.5
	c-8.6,3.7-18,5.8-27.2,8c-7.9,1.9-16,2.8-24.1,4.2c-51.3,0-102.7,0-154,0c6.9-1,13.9-1.7,20.7-2.9c24.6-4.3,49.3-8.2,73.7-13.4
	c9.4-2,18.7-6.2,27.2-11c11-6.2,13-15.9,5.7-26.3c-4.9-7-10.8-13.8-17.4-19.1c-15.4-12.2-31.3-23.9-47.4-35
	c-31.1-21.5-62.8-42.3-90.9-67.7c-19-17.1-36.8-35.4-49.7-57.7c-5.8-10-10.5-20.4-12-32.1c-2.3-17.5,5.1-29.8,22.3-33.6
	c10.8-2.4,22.2-3.8,33.1-3c24.2,1.9,48.4,4.8,72.4,8.5c54.2,8.4,108.3,16.9,163.3,17.9c54.8,1,108.8-4.1,161.6-19.5
	c33.7-9.8,65.5-23.5,93.6-44.9c7.5-5.7,14.7-12.1,21.3-18.9c31.7-32.7,41.7-71.3,27.9-114.6c-8-25.3-19.2-49.7-28.5-74.6
	c-6.7-18.1-14.4-36-18.8-54.7c-7.6-32.4,2.5-59.2,30.9-78c6.1-4,12.2-8.4,18.9-11.2c17-7.2,34-14.8,51.6-20.1
	c92.3-27.4,186.7-45.4,281.2-63.2C1877.1,301,1898.6,297,1920,293z"/>
<path class="st0" d="M1132,0c10,0,20,0,30,0c-1.5,1-2.9,2.2-4.5,3c-17,7.7-33.9,15.6-51.1,22.9c-23.3,9.9-47.1,18.6-70.2,29
	C1015.7,64.2,997,76.7,981,93c-11.9,12.1-19.4,26.3-19.5,43.6c0,7.4,0.6,15.1,2.1,22.3c3.4,15.6,7.7,31.1,11.4,46.6
	c4.4,18.3,6.8,36.7,4.3,55.5c-4.5,33.6-20.3,61.3-43.7,85.2c-25,25.5-55.4,42.8-88.3,55.4c-36.1,13.8-72.4,27-109.1,39.1
	c-48.1,15.9-97.2,28.7-144.8,46.1c-201.8,73.5-397.6,160.7-588,260c-1.7,0.9-3.6,1.5-5.5,2.2c0-8,0-16,0-24
	c86.4-43.8,175.3-82.1,263.8-121.4c107.4-47.7,216.2-91.8,327.1-130.8c44-15.4,88.9-28.1,133.1-42.9c43.3-14.5,86.1-30.5,127.1-50.7
	c20.3-10,39-22.5,55-38.6c30.2-30.5,43-66.7,33.9-109.1c-3.8-17.8-10.5-35.1-15.5-52.7c-4.2-14.9-9-29.7-11.6-44.9
	c-2.9-16.2,2.3-31.1,14.7-42.1c9.2-8.1,19.2-15.5,29.7-21.8c28.7-17.2,59.6-29.6,91.4-40.1c23.6-7.8,47-15.8,70.5-23.9
	C1123.5,4.6,1127.7,2.1,1132,0z"/>
<path class="st0" d="M0,797c0-8.3,0-16.7,0-25c1.5-0.7,3.1-1.3,4.5-2.1c81.2-46.5,164.8-88.1,249.5-127.7
	c105.7-49.5,212.9-95.2,322-136.5c57.6-21.8,117.1-37.4,176.1-54.6c44-12.8,87.6-26.8,129.7-45.2c41.7-18.2,76.7-44.6,102.1-82.9
	c23.9-36.1,34.7-75,26.2-118.2c-2.5-12.9-4.5-25.9-6.5-38.9c-5-32,5.3-58.3,29.3-79.7c15.6-13.9,33.2-24.6,51.9-33.5
	c21.1-10,42.5-19.2,63.4-29.6c14-6.9,27.2-15.3,40.8-23c10.7,0,21.3,0,32,0c-30.6,18-61.1,36-91.8,53.9
	c-16.6,9.6-33.2,19.3-47.5,32.2c-21.6,19.4-35.6,42.9-36.2,72.5c-0.3,13.4,1.1,26.9,2,40.4c1.7,24.9,2.4,49.8-7.2,73.5
	c-27.8,68.8-73.1,120.9-143.2,149.4c-35.7,14.5-72.4,26-109.6,36.1c-49.1,13.2-98.4,25.6-147.1,39.9c-64.9,19-127,45.4-189.1,71.9
	C298.8,634.7,150.1,707.3,7.9,793C5.4,794.5,2.6,795.7,0,797z"/>
<path class="st0" d="M1920,536c0,19.7,0,39.3,0,59c-1.1,0.2-2.3,0.3-3.3,0.7c-51.1,22.5-101.5,46.5-146.6,80.1
	c-38.8,28.8-77.9,57.1-118.5,83.5c-14.3,9.3-27.6,20.4-40.5,31.6c-6.8,5.9-12.4,13.4-17.4,21c-5.2,7.9-5.1,16.9-0.5,25.3
	c2.8,5.1,6.1,10,10,14.2c12.5,13.7,27.8,23.8,43.3,33.6c38.9,24.5,78.1,48.5,117,73.1c37.9,24,75.2,48.9,109.1,78.4
	c10.3,8.9,19.4,19.2,28.5,29.3c3.5,4,5.4,9.4,8.1,14.1c-7,0-14,0-21,0c-4.2-5.2-7.8-10.9-12.6-15.4c-8.9-8.3-18-16.4-27.7-23.7
	c-38.6-29-80.2-53.2-122.2-76.8c-38.6-21.7-77.5-43-115.9-65.1c-17.9-10.3-35.1-21.9-49.3-37.2c-16.1-17.4-16.1-33.3,0-50.7
	c4.1-4.4,8.5-8.5,13-12.4c5.7-4.9,11.6-9.5,17.5-14.1c8.1-6.2,16.1-12.5,24.5-18.2c43.4-29.4,81.3-64.6,113.9-105.6
	c29.7-37.4,65.9-66.8,109.2-87.2C1865.5,561,1892.8,548.6,1920,536z"/>
<path class="st0" d="M79,0c4.8,7.9,9.4,16.1,14.6,23.8C104,39.1,114.9,54,125.2,69.4c10,14.8,15,31,15.2,49.3
	c0.2,18.6,3.8,37.1,5,55.7c0.8,12.3,0.9,24.7,0,36.9c-1.5,20.6-10.4,38.3-25.2,52.5c-16,15.3-32.5,30.1-49.5,44.3
	C44.9,329.5,20.5,352.3,0,379c0-14.7,0-29.3,0-44c0.5-0.3,1.2-0.5,1.6-1c11.9-14.6,24.1-29,35.6-43.8
	c23.6-30.5,31.5-65.1,24.2-102.7c-4.6-23.5-10.9-46.7-16.4-70c-4.2-17.7-7.3-35.7-5-53.9c1.9-15.9-0.5-30.8-6.9-45.3
	C30.5,12.2,28.3,6.1,26,0C43.7,0,61.3,0,79,0z"/>
<path class="st0" d="M1920,477c0,8.7,0,17.3,0,26c-0.5,0-1,0-1.5,0.1c-37,11.3-73.7,23.4-108.9,39.5c-37.9,17.4-68,43.4-89.2,79.5
	c-6.8,11.5-13.6,22.9-20,34.6c-22,39.5-51.4,72.4-87.9,99c-20.2,14.7-40.7,29.1-60.6,44.1c-9.7,7.3-19.2,15.1-27.5,23.8
	c-16,16.7-15.8,31.5-0.8,49.1c0.8,0.9,1.5,1.9,2.4,2.6c9.3,7.5,18.1,16,28.2,22.1c21.9,13,44.3,25.1,66.9,37
	c51.4,27.1,103.2,53.5,154.4,81c27.1,14.6,53.3,31,77.1,50.8c4.9,4.1,9,9.2,13.5,13.9c-9,0-18,0-27,0c-9.2-7.1-17.9-15.1-27.9-21
	c-23.4-13.8-46.9-27.5-71.2-39.6c-60.2-29.8-120.9-58.3-181.2-87.9c-20-9.8-39.5-20.8-58.5-32.5c-8.7-5.4-16.5-13-23.2-20.9
	c-7.9-9.3-8.2-20.4-1.2-30.6c4.5-6.5,9.8-12.8,15.9-17.8c10.5-8.7,21.6-16.7,32.8-24.4c21.7-15.1,43.9-29.6,65.5-44.9
	c45.5-32.1,77.9-74.2,95.2-127.5c4.2-12.8,9-25.4,13.9-38c5.3-13.8,12.6-26.4,22.1-37.8c16.8-20.2,38.6-32.8,62.9-40.9
	c30-10,60.3-19.1,90.7-28C1889.8,483.8,1905,480.7,1920,477z"/>
<path class="st0" d="M1290,1080c12.8-10.3,13.9-18,2.2-30c-9.4-9.6-19.4-19-30.6-26.3c-33.6-21.7-67.6-42.6-101.9-63.2
	c-33.7-20.2-68.5-38.8-100-62.4c-14-10.6-27.2-22.5-39.7-34.8c-6.1-6-10.8-14.1-14.3-22c-5.5-12.5-1-23,12-27
	c10-3.1,20.9-5,31.3-4.9c22.8,0.2,45.6,1.6,68.4,3.3c50.7,3.8,101.4,6.5,152.3,2.3c61.3-5.1,120.9-17.4,176.6-44.8
	c19.7-9.7,37.9-21.5,54.4-36.1c40.3-35.8,55.3-79.5,39.7-131.9c-6.7-22.5-15.1-44.5-22.9-66.6c-6.6-18.5-13.7-36.9-15.7-56.7
	c-2.6-25.9,6.5-46.8,27.6-62.1c21.2-15.3,45.2-24.9,70.2-31.7c65-17.9,130.9-31.1,197.2-42.9c41-7.3,82.1-14.1,123.1-21.1
	c0,4.3,0,8.7,0,13c-28.1,4.7-56.2,9.2-84.3,14c-72.3,12.3-144.3,25.7-215.4,44c-26,6.7-51,15.8-73.4,30.8
	c-22.5,15.1-33.1,36.4-29.1,63.4c2.2,15.1,6.4,29.9,10.8,44.6c6.8,22.8,15.1,45.2,21.7,68c6,20.6,8.2,41.9,4.1,63.3
	c-5.5,28.4-21.1,50.8-41.7,70.1c-23.1,21.8-50.2,37.3-79.2,49.6c-63,26.7-129.2,38.5-197.1,40.8c-36.6,1.2-73.3-0.3-109.9-0.3
	c-17.8,0-35.7,0.4-53.4,1.7c-6.7,0.5-13.6,3.2-19.8,6.2c-6.9,3.4-9.2,10.3-6.6,17.5c1.9,5.1,4.5,10.2,8,14.2
	c5.8,6.8,12,13.5,19.2,18.9c15.4,11.6,30.9,23.3,47.5,33.1c41.2,24.4,83,47.5,124.4,71.4c32.8,18.9,65.6,37.7,95.8,60.7
	c7.3,5.5,13.8,12,20.3,18.4c4.1,4.1,6.5,9.3,6,15.4C1342,1080,1316,1080,1290,1080z"/>
<path class="st0" d="M1920,1065c-13.4-20.7-31.2-37.2-49.6-53.2c-49.1-42.5-102.3-79.6-156.6-115c-17.9-11.6-35.6-23.6-52.5-36.5
	c-8.5-6.4-16.1-14.6-22.6-23.1c-9.6-12.7-9.6-25.9,0.3-38.3c7.4-9.3,16-18.1,25.5-25.1c12.3-9.1,25.5-17,39.1-24
	c69.4-35.7,140.4-67.9,211.8-99.3c1.5-0.7,3.1-1.1,4.7-1.6c0,18,0,36,0,54c-1.3,0.3-2.6,0.6-3.8,1c-35.4,11.9-70.8,23.7-106.2,35.6
	c-24,8-48.2,15.6-72,24.3c-16.1,5.9-30.5,14.9-42.3,27.6c-13.8,15-15.4,30.8-3.1,47c6.7,8.8,14.8,16.8,23.4,23.8
	c16.5,13.3,33.6,25.7,50.8,38.1c41,29.8,81.2,60.6,117.3,96.4c12.4,12.3,24,25.4,36,38.1C1920,1045,1920,1055,1920,1065z"/>
<path class="st0" d="M1920,442c0,5.7,0,11.3,0,17c-1.5,0.2-3,0.2-4.4,0.5c-24.5,5.5-49.3,10.3-73.6,16.9
	c-32.3,8.7-64.6,17.9-96.3,28.6c-35.8,12.1-58.2,37.6-66.9,74.6c-3.4,14.3-6.9,28.5-9.7,42.9c-10.7,54.3-38.6,97.9-82.7,130.9
	c-20.1,15-41.3,28.7-62.3,42.4c-19.4,12.7-39.4,24.4-58.6,37.3c-8.8,5.9-17,13-24.2,20.7c-11.6,12.4-11.3,23.8,1.1,35.3
	c8.6,8,18,15.6,28.3,21.2c26.8,14.5,53.9,28.5,81.5,41.4c62.2,29.1,125,56.9,187.1,86.1c21.8,10.3,42.3,23.2,63.3,35.1
	c3.1,1.8,5.6,4.6,8.3,6.9c-11,0-22,0-33,0c-3.7-2.5-7.2-5.5-11.2-7.5c-26.9-13.6-53.4-28.1-80.9-40.3
	c-59.4-26.4-119.4-51.4-179-77.3c-31-13.5-61.7-27.9-89.7-47.1c-7.1-4.9-13.8-10.6-19.7-16.8c-9.3-9.9-8.9-19.7,1.3-28.8
	c6.7-5.9,14-11.3,21.8-15.9c21.7-12.7,43.7-24.9,65.7-37.1c31.8-17.6,63.3-35.7,91.7-58.5c41.4-33.3,67.6-75.3,73.6-128.8
	c2.1-18.7,3.9-37.5,6.5-56.1c2.5-18.4,7.5-35.9,20.7-50c12-12.7,26.7-20.9,43-26.5C1786.4,467.2,1853.2,454.6,1920,442z"/>
<path class="st0" d="M1920,346c0,4,0,8,0,12c-76.1,11.7-152.1,24.1-227.4,40.3c-28.2,6.1-56.6,11.3-83.3,22.7
	c-12.7,5.4-25.2,11.5-36.7,19.1c-18.2,12.1-27.3,29.9-25.9,52c0.7,11.2,2.2,22.6,4.9,33.5c5.1,21.2,11.5,42.1,16.8,63.3
	c5.7,22.6,9,45.5,5.2,68.8c-4.6,28.1-19,50.9-38.5,70.9c-25.2,25.8-55.7,43.7-88.4,58.2c-63.6,28.2-130.8,41.8-199.7,48
	c-27.4,2.5-54.8,4.3-82.2,7.2c-10.7,1.1-21.4,3.5-31.5,7c-9.6,3.3-11.8,11.3-5.9,19.7c4.3,6.1,9.3,12,15.2,16.3
	c12.8,9.5,25.8,19.1,39.8,26.8c64.1,35.2,128.7,69.6,193,104.5c28.7,15.6,57.2,31.5,85.5,47.8c7.1,4.1,12.8,10.5,19.1,15.8
	c-19,0-38,0-57,0c-2.3-3.2-4-7.1-6.9-9.6c-8.6-7.3-17.1-15.1-26.8-20.8c-48.4-28.5-97-56.5-145.7-84.5
	c-36.8-21.2-74.1-41.5-110.6-63.3c-13.2-7.9-24.9-18.4-36.8-28.3c-4.2-3.5-7.6-8.4-10.4-13.3c-5.7-9.9-3-17.3,7.5-21.7
	c4-1.6,8.2-3.2,12.4-3.5c18.7-1.5,37.5-3.3,56.3-3.6c53.7-1,107.3-2.8,160.3-12.4c48.4-8.8,95.3-22.4,139.3-44.9
	c29.8-15.3,56.7-34.3,77.6-61c20.7-26.5,30.1-56.5,24.9-89.8c-3.1-19.7-8.5-39-13.6-58.3c-5.6-21.6-13.2-42.7-17.7-64.5
	c-7.1-34.9,4.7-58.5,35.9-75.8c8.7-4.8,17.7-9.7,27.1-12.7c23-7.3,46.1-14.3,69.6-19.8c70.6-16.6,142-28.7,213.6-40.2
	C1892.7,349.9,1906.3,348,1920,346z"/>
<path class="st0" d="M1745,1080c-13.3,0-26.7,0-40,0c-12.2-6.7-24.1-14.4-36.8-20c-38-17-76.2-33.7-114.6-49.7
	c-55.2-23.1-111-44.6-164.4-71.6c-19.3-9.8-37.9-20.8-56.4-32.2c-6.5-4-12.1-10-16.9-16c-5.2-6.5-4.2-13.6,1.9-19.3
	c3.9-3.6,8.3-6.9,13-9.1c9.9-4.7,20-9.1,30.3-12.9c44.8-16.7,89.1-34.7,131.4-57.1c28.6-15.2,56.1-32.1,79.7-54.6
	c23.5-22.4,41.2-48.4,48.6-80.5c5.2-22.5,4.7-45.3,3.8-68.1c-0.7-17.5-1.6-35-1.4-52.4c0.3-28.3,13.6-49,39.1-61.3
	c11.2-5.4,22.9-10.2,34.7-13.9c41.1-13,83.3-21,125.6-28.9c32.4-6.1,64.9-11.5,97.4-17.2c0,4.7,0,9.3,0,14c-1,0-2,0-3,0.2
	c-56.8,9.8-113.5,20.2-169.3,34.9c-20.7,5.5-41.3,12.1-61,20.4c-27.2,11.5-42.9,32.8-44.9,62.7c-1.5,21.8-1.9,43.6-2.9,65.4
	c-1.3,27.9-6.5,54.9-20.4,79.6c-14,25-33.5,45.1-55.9,62.5c-27.6,21.4-58,38.4-89.2,53.9c-30.7,15.3-61.7,29.9-92.4,45.3
	c-7.4,3.7-14.4,8.4-20.7,13.8c-7.6,6.5-8.4,14.3-2.3,22.2c4.9,6.2,10.5,12.4,17.1,16.6c18,11.3,36.1,23,55.3,31.9
	c44.5,20.4,89.7,39.3,134.6,58.8c48.1,20.9,96.4,41.5,144.3,62.8C1721.7,1065.5,1733.1,1073.3,1745,1080z"/>
<path class="st0" d="M1920,369c0,4,0,8,0,12c-0.8,0-1.7,0-2.5,0.1c-65.1,11.4-130.4,22.4-195.4,34.3c-28.2,5.1-56.2,11.3-83.1,21.5
	c-14.7,5.6-29,12-41.3,21.9c-12.3,9.9-19.7,22.7-20.7,38.4c-0.6,9.6-0.7,19.4,0.8,28.9c3.3,20.9,7.8,41.6,11.7,62.4
	c4,21.7,6.5,43.5,3.1,65.6c-4.6,30.2-19.8,54.8-40.8,76.3c-25.3,25.9-55.8,44.1-88.2,59.4c-57,27-117.4,43-179.2,54.3
	c-21.4,3.9-42.7,8.9-63.9,13.9c-5.1,1.2-10.1,3.5-14.7,6.2c-6.9,4.1-8.3,10.1-3.5,16.5c3.7,4.8,8,9.5,12.9,13
	c9.6,6.9,19.2,14,29.7,19.4c50.5,26.3,101,52.7,152.2,77.7c45.9,22.5,92.9,42.8,139.1,64.8c14.8,7.1,28.6,16.2,42.9,24.4
	c-17,0-34,0-51,0c-4.7-3.5-9-7.6-14-10.3c-24.6-13.4-48.9-27.2-74.1-39.4c-73.8-35.8-147.1-72.5-218.7-112.5
	c-15.5-8.7-30.2-18.9-44.9-29c-5.1-3.5-9.5-8.5-13.1-13.5c-5.6-7.6-3.7-14.3,4.7-18.5c4.1-2.1,8.6-3.8,13.1-4.7
	c13.7-2.6,27.6-4.8,41.4-7c38.2-6,76.6-10.8,114.4-18.3c51.3-10.2,100.5-27.4,146.6-52.8c27-15,51.6-33.1,71.2-57.3
	c16.7-20.6,27.3-43.7,29.2-70.4c1.5-20.7-1.6-40.9-6.2-60.9c-4.9-21.4-10.8-42.7-14.8-64.3c-8.2-44,3.7-67.2,44.6-85.7
	c16.6-7.5,34.1-14.1,51.8-18c51.2-11.3,102.7-21.5,154.3-31.1C1848.8,379.7,1884.5,374.7,1920,369z"/>
<path class="st0" d="M1920,392c0,4,0,8,0,12c-1.2,0.1-2.3,0-3.5,0.2c-44.3,7.7-88.8,14.6-132.9,23.3c-34.9,6.9-69.5,15.6-104,24.4
	c-16.8,4.3-32.6,11.6-46.9,21.8c-13.2,9.4-21.9,21.9-23.5,37.9c-1.4,13.5-1.3,27.3-0.5,40.8c1.3,23.6,4.7,47.1,5.4,70.7
	c1.3,39.2-12.7,73-38.9,101.9c-20.4,22.5-44.7,39.9-70.9,54.7c-50.8,28.8-105.1,49.2-160.9,66.2c-14.3,4.4-28.6,8.9-42.6,14.2
	c-6.6,2.5-13,6.1-18.7,10.3c-8.1,5.9-8.8,13-2.2,20.5c3.7,4.2,7.9,8.2,12.5,11.4c9.2,6.3,18.6,12.4,28.3,17.8
	c46,25.7,94,47.3,142.5,68c52.4,22.4,104.9,44.5,157.1,67.3c16.1,7.1,31.3,16.3,46.9,24.6c-15.3,0-30.7,0-46,0
	c-2.4-1.7-4.7-3.8-7.3-5c-31.6-15.3-62.9-31.5-95.1-45.6c-70.2-30.8-140.8-60.5-208.6-96.5c-18.4-9.7-36.3-20.3-54-31.3
	c-6.7-4.1-12.6-9.8-17.9-15.7c-5.9-6.6-4.7-13,2.8-17.6c5.5-3.4,11.4-6.5,17.6-8.2c18.5-5.4,37.2-10.6,55.9-15
	c57.1-13.4,112.6-31.3,165-57.9c29.6-15,57.3-32.6,80.7-56.5c30-30.6,45.9-66.8,42.8-110.1c-1.3-17.7-3.9-35.4-6.5-53
	c-2.9-19.8-7-39.4-5.4-59.6c1.5-19,9.6-34.2,25.7-44.6c7.1-4.6,14.6-8.8,22.2-12.3c21.4-9.9,44.1-16.3,67.2-20.7
	c59.2-11.4,118.5-22.3,177.8-33.2C1895.9,395,1908,393.7,1920,392z"/>
<path class="st0" d="M1920,1009c-0.5-0.4-1.2-0.6-1.6-1.1c-32.6-38.9-71.2-71.4-110.3-103.5c-15.1-12.4-30.3-24.6-44.9-37.5
	c-7.7-6.8-14.9-14.4-21-22.6c-12.7-16.8-11-32.6,4.2-47.3c8-7.8,17.5-13.5,28-17.1c16.4-5.6,33-10.6,49.6-15.3
	c30.5-8.6,61.1-16.7,91.6-25c1.4-0.4,2.9-0.5,4.4-0.7c0,10,0,20,0,30c-1.5,0.2-3,0.2-4.4,0.5c-18.3,4.5-36.7,8.5-54.8,13.7
	c-15.3,4.4-30.5,9.5-45.2,15.7c-7.4,3.1-14.3,8.6-20.2,14.3c-9.7,9.5-11,20.9-4.9,33c2.4,4.7,5.1,9.5,8.6,13.4
	c8.8,10,17.5,20.1,27.2,29.2c31.9,30,64.5,59.4,93.7,92.1C1920,990.3,1920,999.7,1920,1009z"/>
<path class="st0" d="M1920,957c-20-21.2-40.1-42.3-59.8-63.7c-6.8-7.3-12.8-15.3-18.9-23.2c-2.6-3.4-4.7-7.3-6.5-11.2
	c-8-17-5-31.1,10.7-41.4c9.8-6.4,20.7-11.4,31.7-15.3c13.9-5,28.5-8.2,42.7-12.1c0,7.7,0,15.3,0,23c-10,4.8-20.7,8.6-29.8,14.7
	c-15.8,10.6-19.6,26.1-12.4,43.8c1.1,2.6,2.3,5.2,3.7,7.6c10.5,18.5,24.7,34.1,38.6,49.9C1920,938.3,1920,947.7,1920,957z"/>
<path class="st0" d="M0,161c4.4,18.6,9.7,37,12.8,55.8c3.7,21.9,1.3,43.5-7.9,64.1C3.5,284,1.7,287,0,290C0,247,0,204,0,161z"/>
<path class="st0" d="M1920,900c-7.2-10.3-12.4-21.3-12-34.2c0.4-9.9,4.2-18.4,12-24.8C1920,860.7,1920,880.3,1920,900z"/>
</svg>
