<?xml version="1.0" encoding="utf-8"?>
<!-- Generator: Adobe Illustrator 22.1.0, SVG Export Plug-In . SVG Version: 6.00 Build 0)  -->
<svg version="1.1" id="Layer_1" xmlns="http://www.w3.org/2000/svg" xmlns:xlink="http://www.w3.org/1999/xlink" x="0px" y="0px"
	 viewBox="0 0 640 480" style="enable-background:new 0 0 640 480;" xml:space="preserve">
<style type="text/css">
	.st0{fill:#FFFFFF;}
</style>
<g>
	<path class="st0" d="M356.8,274.6c0.5-2.4,0.9-4.7,1.6-7.2c2.2-7.1,3.3-10.2,4.8-15.3c6-19.4,10.1-39,10.6-59.3
		c0.5-19.2-1.5-38-7.2-56.4c-0.6-1.8-1.3-2.5-3.2-2.4c-4.3,0.1-8.7,0.1-13,0.2c-5.8,0.2-5.8,0.3-5.1,5.9c0.4,2.9,0.7,5.8,1,8.8
		c1.9,17.8,1,35.4-2.8,52.9c-2.7,12.4-6.8,24.2-11.6,35.9c-6.3,15.2-13.4,30-19.3,45.4c-5,13.1-9.9,26.2-11.6,40.2
		c-2.5,20.3-0.7,40.5,0.9,60.8c1.2,15.4,4.1,30.6,7.3,45.7c0.6,2.7,2.1,2.4,3.9,2.4c6.9,0,13.8-0.1,20.7,0.1c2.5,0.1,3.2-0.6,2.5-3
		c-2.1-6.6-3-13.5-4.2-20.3c-3.9-22.3-5.2-44.9-4.9-67.6c0.2-14.2,1.7-28.3,7-41.7c0.3-1.1,0.1-0.3,1.2-3.6
		c-0.3,2.8-0.2,2.7-0.4,4.1c-0.3,2.3-0.6,4.5-0.8,6.8c-1.7,16.8-0.1,33.3,2.6,49.9c3.9,24.7,10.5,48.6,18.5,72.2
		c0.5,1.5,0.9,3.2,3.2,3.2c6.1-0.1,12.3-0.1,18.4,0c2.1,0,2.6-0.8,2.3-2.8c-0.9-5.2-2.2-10.2-3-15.4c-2.8-17.4-4.1-35-4.5-52.6
		c-0.3-13.8-0.2-27.6,1.9-41.2c2.6-16.9,9.3-32.7,15.6-48.6c4-10.1,8.2-20.1,11.4-30.4c5.5-17.2,9.4-34.8,11.5-52.9
		c1.9-17.4,1.1-34.6-0.6-51.9c-0.3-3-1.8-3.7-4.5-3.6c-5.9,0.3-11.7,0.3-17.6,0.5c-5.5,0.1-5.6,0.2-4.6,5.7
		c3.9,21.4,2.4,42.8-1.6,64c-3.7,19.4-10.7,37.7-18.8,55.6L356.8,274.6z"/>
	<path class="st0" d="M252,158.4c-1.8-20.7-7.5-41.4-13.6-62c-2.7-9.2-6.6-18.4-4.8-28.4c1.3-7.2,5.3-12.4,12-15.2
		c12.8-5.3,25.8-4.9,38.4,0.4c9.5,4,15.6,11.8,19.3,21.2c5.6,14.1,9.7,28.7,13.4,43.3c6.3,25.1,9,50.5,4.5,76.4
		c-2.6,15-7.4,29.3-13.3,43.3c-7.3,17.4-15.4,34.6-21.8,52.4c-4.3,12-7.6,24.2-8.9,37c-0.8,8.1-2.7,16.2-9,22.2
		c-3.4,3.2-7.2,5.9-12.1,6.7c-5.6,0.9-11.1,1.4-16.8,0.8c-14.3-1.3-22.1-12.3-23.5-25.1c-1-9.5,0.3-18.8,2.3-28.1
		c4.2-19.4,10.9-37.9,17.8-56.4c4.9-13.3,10.1-26.4,13.4-40.3C252.8,191,254.2,175.2,252,158.4z M292.6,143.6
		c-1.4-7.1-2.6-14.3-4.4-21.4c-2.9-11.2-6.3-22.4-9.6-33.5c-0.9-2.9-1.6-5.9-3.3-8.6c-1.7-2.7-5.7-4.2-8-2.9
		c-3.1,1.8-2.6,4.5-1.7,7.4c3,9.9,6.3,19.7,8.9,29.6c4.4,16.7,7.9,33.6,8.2,50.9c0.2,9.3,0.3,18.6-1.3,27.9
		c-2.5,14.8-7.3,28.8-12.9,42.7c-7,17.2-14.1,34.4-19.9,52c-3.9,11.6-6.8,23.5-7.9,35.7c-0.3,3.3,1.7,6.1,4.2,6.3
		c2.6,0.3,5-2,5.5-5.2c0.4-2.6,0.6-5.3,1-8c3.2-19.7,10.5-38,17.9-56.4c6.2-15.5,13.3-30.6,18.4-46.6
		C295.1,190.9,295.5,167.4,292.6,143.6z"/>
	<path class="st0" d="M463.6,252c2.5-3.6,2.9-7.8,4-11.7c4-14.1,6.9-28.5,9.3-43c2.7-16.4,4-32.9,4.2-49.5c0-4.2,0-8.4-0.1-12.6
		c-0.1-1.7,0.6-2.3,2.2-2.3c8.3,0,16.6,0.1,24.9,0.1c2,0,2.1,1.1,2,2.8c-0.2,10.7-1.7,21.3-3.1,32c-2.7,21.2-7.4,41.9-12.7,62.5
		c-5.2,20.4-11.1,40.5-19.3,59.9c-8.4,20-10.1,41.2-11.4,62.5c-1.3,20.5-2.5,41.1-1.8,61.6c0.2,5,0.6,10,1.1,14.9
		c0.2,2.2-0.3,3-2.6,3c-8.2,0-16.3,0-24.5,0.2c-2.9,0.1-3.8-0.9-4.2-3.8c-4.6-35.3-4.2-70.5,0.3-105.7c1.8-13.8,2.1-27.7,4-41.5
		c2.8-20.5,4.8-41,5.5-61.7c0.7-21.9-0.3-43.6-4.8-65.2c-1.3-6.4-3.1-12.6-4.4-19c-0.4-1.8-0.5-2.6,2-2.6c7.3,0.2,14.5,0,21.8-0.3
		c3.1-0.1,4.3,1.1,4.8,4c4.8,28.7,7.8,57.4,5,86.6C464.8,232.7,464.3,242.3,463.6,252z"/>
	<path class="st0" d="M191.2,161.8c-1.8-10-3.7-20-6.1-30c-2.8-11.4-6-22.7-8.8-34c-3.3-13.3-6.1-26.6-7.5-40.2
		c-0.6-6-0.5-5.6,4.8-5.5c7,0.2,14,0,21.1-0.1c2.9,0,4.2,0.3,4.5,4c0.8,9.5,2.7,18.9,5.2,28.2c6.6,25.2,14.8,50,17.8,76
		c1.7,14.7,1.7,29.5-1.6,44.2c-3.7,16.3-9.3,32-14.3,48c-5.7,18.1-11.1,36.3-14.1,55.2c-1.1,7-0.9,14-1.4,21c-0.4,6-1.6,12-4.6,17.2
		c-4,7.1-10.5,10.4-18.6,11c-10.3,0.8-20-0.3-27.4-8.5c-5.4-6-7.5-13.5-8-21.4c-0.6-10.3,0.7-20.6,1.9-30.9
		c1.8-14.3,3.9-28.5,7-42.5c0.5-2.3,1.2-3.2,3.6-3.1c6.9,0.2,13.8,0.1,20.7-0.1c3.2-0.1,3.3,0.9,2.6,3.7
		c-5.2,22.2-10.4,44.5-11.1,67.4c0,0.9-0.1,1.8,0,2.7c0.2,3.1,1.4,5.9,4.7,5.9c3.2,0.1,4.4-2.7,4.6-5.6c0.2-2.7,0.3-5.3,0.3-8
		c0.2-13.6,3.3-26.8,6.2-40c4.2-18.9,9.7-37.5,14.6-56.2C192.3,201,194.3,181.6,191.2,161.8z"/>
	<path class="st0" d="M143.1,400.4c0-3.6,0-9.8-0.3-16.1c-0.1-2.6,0.7-3.2,3.2-3.3c38.1-0.4,76.2-0.3,114.3,0.2c3,0,3.4,1.2,3.3,3.8
		c-0.4,7.3-0.9,14.5-0.8,21.8c0,3.5-1.4,4.1-4.3,4.1c-19-0.2-38.1-0.4-57.1-0.4c-16.4-0.1-32.9-0.1-49.3,0
		C144.2,410.5,144.2,410.7,143.1,400.4z"/>
</g>
</svg>
